<svg xmlns="http://www.w3.org/2000/svg" viewBox="0 0 117.86 211.74"><defs><style>.cls-1{fill:#242424;}</style></defs><g id="Layer_2" data-name="Layer 2"><g id="Layer_4" data-name="Layer 4"><polygon class="cls-1" points="40.04 63.23 64.49 63.23 64.49 54.82 40.04 54.82 40.04 40.13 64.49 40.13 64.49 31.72 31.63 31.72 31.63 86.32 40.04 86.32 40.04 63.23"/><rect class="cls-1" x="64.49" y="77.92" width="24.33" height="8.41"/><path class="cls-1" d="M0,0V117.9H117.86V0ZM109.46,109.49H8.41V8.41H109.46Z"/><polygon class="cls-1" points="23.82 148.04 23.82 143.51 8.41 143.51 8.41 169.12 13.33 169.12 13.33 158.91 23.81 158.91 23.81 154.4 13.33 154.4 13.33 148.04 23.82 148.04"/><path class="cls-1" d="M42,166.82a9.92,9.92,0,0,0,2.45-7l0-1.3a9.45,9.45,0,0,0-2.71-6.41,8.68,8.68,0,0,0-6.29-2.35A9.16,9.16,0,0,0,30.6,151a8,8,0,0,0-3.14,3.43,11.26,11.26,0,0,0-1.09,5.05v.23a10.14,10.14,0,0,0,2.45,7.17,8.55,8.55,0,0,0,6.57,2.64A8.47,8.47,0,0,0,42,166.82Zm-9.48-2.88a7.12,7.12,0,0,1-1-4.15,7.92,7.92,0,0,1,1-4.5,3.32,3.32,0,0,1,2.89-1.46,3.37,3.37,0,0,1,2.92,1.47,7,7,0,0,1,1,4.12,7.76,7.76,0,0,1-1,4.53,3.67,3.67,0,0,1-5.81,0Z"/><path class="cls-1" d="M57.79,149.74c-1.84,0-4.63,1.09-5.65,2.84L52,150.09H47.2v19h5.08V157.44c.6-1.3,2.6-2.93,6.91-2.93l0-4.77Z"/><path class="cls-1" d="M90.14,166l-2.49-2.8a5.5,5.5,0,0,1-4.59,2.13,4.47,4.47,0,0,1-3.14-1.12,4.7,4.7,0,0,1-1.49-3H90.55v-2.08q0-4.52-2.24-7a7.92,7.92,0,0,0-6.15-2.46A8.79,8.79,0,0,0,77.52,151a8.11,8.11,0,0,0-3.14,3.48,11.5,11.5,0,0,0-1.1,5.13v.49a9.12,9.12,0,0,0,2.62,6.84,9.37,9.37,0,0,0,6.82,2.57,10.09,10.09,0,0,0,4.33-.91A7.56,7.56,0,0,0,90.14,166ZM79.69,154.86a3.14,3.14,0,0,1,2.45-1,3.28,3.28,0,0,1,2.5.93,3.79,3.79,0,0,1,.91,2.62v.41H78.48A5.31,5.31,0,0,1,79.69,154.86Z"/><path class="cls-1" d="M22.33,180.14a11.91,11.91,0,0,0-6-1.52H8.41v25.61h7.93a12,12,0,0,0,6-1.55,10.49,10.49,0,0,0,4.14-4.31A13.37,13.37,0,0,0,28,192v-1.18a13.4,13.4,0,0,0-1.49-6.37A10.66,10.66,0,0,0,22.33,180.14Zm.31,12A9.13,9.13,0,0,1,21,198a5.74,5.74,0,0,1-4.73,2H13.68v-17.1h2.61a5.7,5.7,0,0,1,4.73,2,9.26,9.26,0,0,1,1.62,5.92Z"/><rect class="cls-1" x="32.21" y="185.2" width="5.1" height="19.03"/><path class="cls-1" d="M34.76,177.93a2.59,2.59,0,0,0-1.87.66,2.41,2.41,0,0,0,0,3.38,2.57,2.57,0,0,0,1.85.66,2.6,2.6,0,0,0,1.85-.66,2.25,2.25,0,0,0,.7-1.7,2.2,2.2,0,0,0-.7-1.68A2.57,2.57,0,0,0,34.76,177.93Z"/><path class="cls-1" d="M67.06,145.41H62v18.66q.1,5.4,5.45,5.4a10.31,10.31,0,0,0,3.08-.46v-3.85a8.25,8.25,0,0,1-1.49.12,2,2,0,0,1-1.55-.45,2.28,2.28,0,0,1-.41-1.52V154h4.67v-3.95H67.06Z"/><path class="cls-1" d="M77.07,180.52H72v18.66q.1,5.4,5.46,5.4a10.24,10.24,0,0,0,3.07-.46v-3.85a8.25,8.25,0,0,1-1.49.12,2.06,2.06,0,0,1-1.55-.45,2.29,2.29,0,0,1-.4-1.52v-9.27h4.67v-4H77.07Z"/><path class="cls-1" d="M100.1,191.58a6.21,6.21,0,0,0-2.06-5,8.31,8.31,0,0,0-5.59-1.77,10.44,10.44,0,0,0-4.19.81,6.69,6.69,0,0,0-2.88,2.2,5.11,5.11,0,0,0-1,3.06h5.08a2.14,2.14,0,0,1,.73-1.69,3,3,0,0,1,2-.61,2.64,2.64,0,0,1,2.13.79,3.1,3.1,0,0,1,.68,2.11v1.09H92.66a11.06,11.06,0,0,0-6.48,1.64,5.38,5.38,0,0,0-2.24,4.64A5.19,5.19,0,0,0,85.78,203a6.74,6.74,0,0,0,4.63,1.62,6.15,6.15,0,0,0,4.8-2.06,6,6,0,0,0,.51,1.71h5.14v-.3a9.11,9.11,0,0,1-.76-4.1ZM95,198.85a3.22,3.22,0,0,1-1.41,1.34,4.28,4.28,0,0,1-2.07.5,2.58,2.58,0,0,1-1.83-.61,2,2,0,0,1-.67-1.57l0-.3c.16-1.76,1.52-2.64,4.06-2.64H95Z"/><rect class="cls-1" x="104.36" y="177.21" width="5.1" height="27.02"/><path class="cls-1" d="M65.1,177.93a2.59,2.59,0,0,0-1.87.66,2.39,2.39,0,0,0,0,3.38,2.57,2.57,0,0,0,1.85.66A2.6,2.6,0,0,0,67,182a2.25,2.25,0,0,0,.7-1.7,2.2,2.2,0,0,0-.7-1.68A2.57,2.57,0,0,0,65.1,177.93Z"/><rect class="cls-1" x="62.54" y="185.2" width="5.1" height="19.03"/><path class="cls-1" d="M53.34,187a5.83,5.83,0,0,0-4.81-2.15A6.65,6.65,0,0,0,43,187.52a11.22,11.22,0,0,0-2.06,7.06v.21A11.29,11.29,0,0,0,43,201.91a6.63,6.63,0,0,0,5.48,2.69,5.79,5.79,0,0,0,4.57-2v1A4.1,4.1,0,0,1,52,206.7a4.28,4.28,0,0,1-3.11,1.08,5.85,5.85,0,0,1-4.55-2.13l-2.23,3.1a7.3,7.3,0,0,0,3,2.16,10.35,10.35,0,0,0,4,.83,10.87,10.87,0,0,0,4.76-1A7.2,7.2,0,0,0,57,208a8.28,8.28,0,0,0,1.12-4.35V185.2H53.55Zm-.28,11.76a3.47,3.47,0,0,1-3.28,1.74A3.26,3.26,0,0,1,47,199a7,7,0,0,1-1-4.06,7.91,7.91,0,0,1,1-4.48,3.27,3.27,0,0,1,2.84-1.5,3.45,3.45,0,0,1,3.25,1.75Z"/></g></g></svg>