<?xml version="1.0" encoding="utf-8"?>
<!-- Generator: Adobe Illustrator 16.0.0, SVG Export Plug-In . SVG Version: 6.00 Build 0)  -->
<!DOCTYPE svg PUBLIC "-//W3C//DTD SVG 1.1//EN" "http://www.w3.org/Graphics/SVG/1.1/DTD/svg11.dtd">
<svg version="1.1" id="Layer_1" xmlns="http://www.w3.org/2000/svg" xmlns:xlink="http://www.w3.org/1999/xlink" x="0px" y="0px"
	 width="283.465px" height="73.042px" viewBox="0 0 283.465 73.042" enable-background="new 0 0 283.465 73.042"
	 xml:space="preserve">
<g>
	<defs>
		<rect id="SVGID_1_" width="283.465" height="73.042"/>
	</defs>
	<clipPath id="SVGID_2_">
		<use xlink:href="#SVGID_1_"  overflow="visible"/>
	</clipPath>
	<path clip-path="url(#SVGID_2_)" fill="#00985F" d="M273.865,23.029c4.826-1.654,8.278-4.963,8.278-10.113
		c0-9.467-7.666-12.401-17.136-12.401h-14.312c-1.421,0-2.574,1.152-2.574,2.573V47.09h18.4c11.265,0,16.943-6.18,16.943-13.688
		C283.465,27.925,280.265,24.468,273.865,23.029 M256.733,7.888h8.28c5.938,0,7.652,2.273,7.652,6.058
		c0,7.655-8.774,5.783-15.933,6.059V7.888z M266.329,39.644h-9.527V27.352h9.499c4.404,0,7.683,1.462,7.683,5.885
		C273.983,37.751,270.838,39.644,266.329,39.644 M132.14,3.088v6.071h-14.011V47.09h-8.665V9.159H95.389V3.088
		c0-1.421,1.152-2.573,2.573-2.573h31.605C130.988,0.515,132.14,1.667,132.14,3.088 M163.592,41.446
		c-1.408-0.003-2.433-0.679-3.082-1.894l-14.269-26.508c0.155,1.294,0.225,2.626,0.225,3.962V47.09h-8.599V3.088
		c0-1.421,1.156-2.573,2.577-2.573c7.498-0.001,7.54-0.057,8.186,0.188c0.45,0.171,0.823,0.505,1.049,0.93
		c12.39,23.412,12.985,23.792,13.9,26.576c0.005,0.016,0.029,0.016,0.035,0c0.915-2.784,1.51-3.164,13.9-26.576
		c0.226-0.425,0.599-0.759,1.049-0.93c0.645-0.245,0.687-0.189,8.185-0.188c1.422,0,2.578,1.152,2.578,2.573V47.09h-8.6V17.006
		c0-1.336,0.069-2.668,0.225-3.962l-14.269,26.508c-0.65,1.215-1.674,1.891-3.082,1.894H163.592z M69.528,0
		C55.283,0.018,45.923,10.268,45.923,23.803c0,15.632,11.789,23.829,23.609,23.897h0.028c11.819-0.068,23.608-8.265,23.608-23.897
		c0-13.535-9.358-23.785-23.604-23.803H69.528z M69.545,39.722c-7.013,0.037-14.295-4.542-14.295-15.919
		c0-9.32,4.997-15.895,14.295-15.904c9.299,0.009,14.296,6.584,14.296,15.904C83.841,35.179,76.561,39.759,69.545,39.722 M218.707,0
		c-14.245,0.018-23.604,10.268-23.604,23.803c0,15.632,11.79,23.829,23.609,23.897h0.027c11.819-0.068,23.609-8.265,23.609-23.897
		c0-13.535-9.358-23.785-23.605-23.803H218.707z M218.726,39.722c-7.015,0.037-14.295-4.542-14.295-15.919
		c0-9.32,4.997-15.895,14.295-15.904c9.298,0.009,14.295,6.584,14.295,15.904C233.021,35.179,225.74,39.759,218.726,39.722
		 M16.83,35.046V47.09H8.101v-7.345L16.83,35.046z M44.068,3.088v6.071H16.83v12.088l-8.729,2.102V3.088
		c0-1.421,1.152-2.573,2.573-2.573h30.821C42.916,0.515,44.068,1.667,44.068,3.088 M19.822,25.599L0,33.353v-5.721l20.142-4.85
		C19.822,23.856,19.771,24.73,19.822,25.599 M20.285,27.877c0.274,0.766,0.657,1.478,1.132,2.12L0,41.529v-5.72L20.285,27.877z
		 M28.018,19.169c3.286,0,5.95,2.664,5.95,5.95s-2.664,5.95-5.95,5.95s-5.95-2.664-5.95-5.95S24.731,19.169,28.018,19.169"/>
	<path clip-path="url(#SVGID_2_)" fill="#00985F" d="M45.911,59.963v1.976h-3.884v10.94h-2.403v-10.94h-3.903v-1.976H45.911z
		 M58.694,72.879h-2.421v-5.645h-6.056v5.645h-2.421V59.963h2.421v5.557h6.056v-5.557h2.421V72.879z M69.805,59.963v1.912h-5.726
		v3.582h4.511v1.849h-4.511v3.652h5.726v1.921h-8.147V59.963H69.805z M78.53,68.333v4.546h-2.403V59.963h4.207
		c2.872,0,5.011,1.213,5.011,4.118c0,2.847-2.079,4.252-5.011,4.252H78.53z M78.53,66.457h1.804c1.607,0,2.609-0.771,2.609-2.376
		c0-1.562-1.045-2.26-2.609-2.26H78.53V66.457z M92.767,70.94c1.735,0,2.957-1.145,2.957-3.242v-7.735h2.402v7.735
		c0,3.134-2.098,5.323-5.359,5.323c-3.3,0-5.35-2.231-5.35-5.323v-7.735h2.402v7.727C89.819,69.581,90.846,70.94,92.767,70.94
		 M103.334,70.896h5.171v1.982h-7.573V59.963h2.402V70.896z M117.446,62.313c-0.065,0.13-0.141,0.223-0.227,0.275
		c-0.086,0.055-0.19,0.081-0.309,0.081c-0.119,0-0.253-0.046-0.401-0.138c-0.779-0.484-1.345-0.755-2.197-0.755
		c-1.118,0-2.001,0.508-2.001,1.625c0,2.467,5.958,1.135,5.958,5.431c0,4.018-4.599,5.332-7.874,3.188
		c-0.319-0.208-0.603-0.44-0.853-0.696l0.696-1.153c0.066-0.083,0.145-0.151,0.238-0.209c0.092-0.057,0.194-0.085,0.307-0.085
		c0.149,0,0.31,0.062,0.483,0.184c0.915,0.647,1.572,0.996,2.59,0.996c1.282,0,2.152-0.594,2.152-1.886
		c0-2.037-3.369-1.571-5.019-3.152c-0.686-0.657-0.929-1.53-0.929-2.492c0-1.955,1.598-3.707,4.224-3.707
		c1.384,0,2.763,0.422,3.751,1.357L117.446,62.313z M128.611,59.963v1.912h-5.725v3.582h4.511v1.849h-4.511v3.652h5.725v1.921
		h-8.146V59.963H128.611z M157.639,59.963v1.912h-5.725v3.823h4.832v1.92h-4.832v5.261h-2.421V59.963H157.639z M171.831,59.963
		v1.912h-5.725v3.823h4.832v1.92h-4.832v5.261h-2.421V59.963H171.831z M201.101,66.421c0,3.718-2.554,6.601-6.538,6.601
		c-3.93,0-6.556-2.812-6.556-6.601c0-3.792,2.634-6.601,6.556-6.601C198.471,59.82,201.101,62.64,201.101,66.421 M198.636,66.421
		c0-2.652-1.392-4.555-4.073-4.555c-2.641,0-4.1,1.852-4.1,4.555c0,2.913,1.647,4.547,4.1,4.547
		C197.183,70.968,198.636,69.148,198.636,66.421 M186.462,66.421c0,3.718-2.555,6.601-6.538,6.601c-3.931,0-6.557-2.812-6.557-6.601
		c0-3.792,2.635-6.601,6.557-6.601C183.831,59.82,186.462,62.64,186.462,66.421 M183.996,66.421c0-2.652-1.392-4.555-4.072-4.555
		c-2.642,0-4.1,1.852-4.1,4.555c0,2.913,1.647,4.547,4.1,4.547C182.543,70.968,183.996,69.148,183.996,66.421 M147.242,66.421
		c0,3.718-2.554,6.601-6.539,6.601c-3.929,0-6.555-2.812-6.555-6.601c0-3.792,2.633-6.601,6.555-6.601
		C144.611,59.82,147.242,62.64,147.242,66.421 M144.776,66.421c0-2.652-1.391-4.555-4.073-4.555c-2.64,0-4.099,1.852-4.099,4.555
		c0,2.913,1.647,4.547,4.099,4.547C143.324,70.968,144.776,69.148,144.776,66.421 M211.757,59.963v1.976h-3.886v10.94h-2.402v-10.94
		h-3.903v-1.976H211.757z M213.642,72.879V59.963h4.457c2.632,0,4.752,0.817,4.752,3.439c0,1.424-0.955,2.346-2.296,2.805
		c1.774,0.399,2.662,1.357,2.662,2.876c0,2.083-1.576,3.796-4.698,3.796H213.642z M216.044,65.556h1.921
		c0.816,0,1.435-0.149,1.857-0.447c0.423-0.297,0.635-0.771,0.635-1.42c0-0.673-0.191-1.152-0.572-1.438s-0.976-0.429-1.786-0.429
		h-2.055V65.556z M216.044,67.216v3.787h2.438c1.383,0,2.358-0.567,2.358-1.974c0-1.354-1.003-1.813-2.367-1.813H216.044z
		 M236.989,72.879h-1.857c-0.209,0-0.38-0.052-0.514-0.155c-0.134-0.104-0.23-0.234-0.29-0.39l-0.965-2.635h-5.351l-0.965,2.635
		c-0.047,0.138-0.141,0.264-0.28,0.375c-0.141,0.113-0.312,0.17-0.514,0.17h-1.867l5.073-12.916h2.456L236.989,72.879z
		 M228.63,68.002h4.117l-1.572-4.296c-0.071-0.19-0.15-0.415-0.236-0.674c-0.087-0.26-0.172-0.541-0.255-0.844
		c-0.083,0.303-0.165,0.586-0.246,0.848c-0.08,0.262-0.16,0.491-0.236,0.688L228.63,68.002z M241.08,70.896h5.171v1.982h-7.573
		V59.963h2.402V70.896z M250.673,70.896h5.172v1.982h-7.574V59.963h2.402V70.896z"/>
</g>
</svg>
