<svg width="833" height="934" viewBox="0 0 833 934" fill="none" xmlns="http://www.w3.org/2000/svg">
<rect x="256" y="2" width="577" height="163" fill="#3F9C35"/>
<rect x="622" y="79" width="573" height="168" transform="rotate(90 622 79)" fill="#3F9C35"/>
<rect y="652" width="652" height="166" transform="rotate(-90 0 652)" fill="#00619E"/>
<rect x="75" y="248" width="295" height="166" fill="#00619E"/>
<path d="M87.4219 831.418H109.541V856.467H133.711V831.418H155.928V903H133.711V874.045H109.541V903H87.4219V831.418ZM187.422 867.941L168.428 865.939C169.144 862.619 170.169 860.015 171.504 858.127C172.871 856.206 174.824 854.546 177.363 853.146C179.186 852.137 181.693 851.356 184.883 850.803C188.073 850.249 191.523 849.973 195.234 849.973C201.191 849.973 205.977 850.314 209.59 850.998C213.203 851.649 216.214 853.033 218.623 855.148C220.316 856.613 221.65 858.697 222.627 861.398C223.604 864.068 224.092 866.623 224.092 869.064V891.965C224.092 894.406 224.238 896.327 224.531 897.727C224.857 899.094 225.54 900.852 226.582 903H207.93C207.181 901.665 206.693 900.656 206.465 899.973C206.237 899.257 206.009 898.15 205.781 896.652C203.177 899.159 200.589 900.949 198.018 902.023C194.502 903.456 190.417 904.172 185.762 904.172C179.577 904.172 174.873 902.74 171.65 899.875C168.46 897.01 166.865 893.479 166.865 889.279C166.865 885.34 168.021 882.102 170.332 879.562C172.643 877.023 176.908 875.135 183.125 873.898C190.579 872.401 195.413 871.359 197.627 870.773C199.84 870.155 202.184 869.357 204.658 868.381C204.658 865.939 204.154 864.23 203.145 863.254C202.135 862.277 200.361 861.789 197.822 861.789C194.567 861.789 192.126 862.31 190.498 863.352C189.229 864.165 188.203 865.695 187.422 867.941ZM204.658 878.391C201.924 879.367 199.076 880.23 196.113 880.979C192.077 882.053 189.521 883.111 188.447 884.152C187.34 885.227 186.787 886.447 186.787 887.814C186.787 889.377 187.324 890.663 188.398 891.672C189.505 892.648 191.117 893.137 193.232 893.137C195.446 893.137 197.497 892.6 199.385 891.525C201.305 890.451 202.656 889.149 203.438 887.619C204.251 886.057 204.658 884.038 204.658 881.564V878.391ZM236.104 831.418H256.172V856.223C258.158 854.139 260.404 852.577 262.91 851.535C265.449 850.493 268.249 849.973 271.309 849.973C277.624 849.973 282.848 852.251 286.982 856.809C291.117 861.333 293.184 867.844 293.184 876.34C293.184 882.004 292.24 887.001 290.352 891.33C288.464 895.627 285.843 898.85 282.49 900.998C279.17 903.114 275.475 904.172 271.406 904.172C267.923 904.172 264.733 903.423 261.836 901.926C259.655 900.754 257.279 898.557 254.707 895.334V903H236.104V831.418ZM256.025 876.926C256.025 881.385 256.855 884.624 258.516 886.643C260.208 888.628 262.34 889.621 264.912 889.621C267.288 889.621 269.274 888.645 270.869 886.691C272.497 884.706 273.311 881.385 273.311 876.73C273.311 872.629 272.513 869.618 270.918 867.697C269.355 865.777 267.451 864.816 265.205 864.816C262.503 864.816 260.29 865.826 258.564 867.844C256.872 869.829 256.025 872.857 256.025 876.926ZM298.994 831.418H366.23V849.094H343.672V903H321.553V849.094H298.994V831.418ZM432.539 882.004H392.695C393.053 885.194 393.916 887.57 395.283 889.133C397.204 891.379 399.71 892.502 402.803 892.502C404.756 892.502 406.611 892.014 408.369 891.037C409.443 890.419 410.599 889.328 411.836 887.766L431.416 889.572C428.421 894.781 424.808 898.524 420.576 900.803C416.344 903.049 410.273 904.172 402.363 904.172C395.495 904.172 390.091 903.212 386.152 901.291C382.214 899.338 378.942 896.262 376.338 892.062C373.766 887.831 372.48 882.867 372.48 877.17C372.48 869.064 375.068 862.505 380.244 857.492C385.452 852.479 392.63 849.973 401.777 849.973C409.199 849.973 415.059 851.096 419.355 853.342C423.652 855.588 426.924 858.843 429.17 863.107C431.416 867.372 432.539 872.922 432.539 879.758V882.004ZM412.324 872.482C411.934 868.641 410.892 865.891 409.199 864.23C407.539 862.57 405.342 861.74 402.607 861.74C399.45 861.74 396.927 862.993 395.039 865.5C393.835 867.062 393.07 869.39 392.744 872.482H412.324ZM480.342 882.736L499.238 884.885C498.197 888.824 496.488 892.242 494.111 895.139C491.735 898.003 488.691 900.233 484.98 901.828C481.302 903.423 476.615 904.221 470.918 904.221C465.417 904.221 460.827 903.716 457.148 902.707C453.503 901.665 450.361 900.005 447.725 897.727C445.088 895.415 443.021 892.714 441.523 889.621C440.026 886.529 439.277 882.427 439.277 877.316C439.277 871.978 440.189 867.535 442.012 863.986C443.346 861.382 445.169 859.055 447.48 857.004C449.792 854.921 452.168 853.374 454.609 852.365C458.483 850.77 463.447 849.973 469.502 849.973C477.965 849.973 484.411 851.486 488.838 854.514C493.298 857.541 496.423 861.968 498.213 867.795L479.512 870.285C478.926 868.072 477.852 866.411 476.289 865.305C474.759 864.165 472.692 863.596 470.088 863.596C466.8 863.596 464.131 864.784 462.08 867.16C460.062 869.504 459.053 873.068 459.053 877.854C459.053 882.118 460.062 885.357 462.08 887.57C464.098 889.784 466.67 890.891 469.795 890.891C472.399 890.891 474.58 890.223 476.338 888.889C478.128 887.554 479.463 885.503 480.342 882.736ZM508.369 831.418H528.242V857.785C530.944 854.986 533.63 852.984 536.299 851.779C538.968 850.575 542.126 849.973 545.771 849.973C551.175 849.973 555.423 851.617 558.516 854.904C561.641 858.192 563.203 863.238 563.203 870.041V903H543.232V874.484C543.232 871.229 542.63 868.934 541.426 867.6C540.221 866.232 538.529 865.549 536.348 865.549C533.939 865.549 531.986 866.46 530.488 868.283C528.991 870.106 528.242 873.378 528.242 878.098V903H508.369V831.418ZM653.828 891.184H628.633L625.166 903H602.559L629.463 831.418H653.584L680.488 903H657.344L653.828 891.184ZM649.189 875.705L641.279 849.973L633.418 875.705H649.189ZM683.76 879.318L704.805 878C705.26 881.418 706.188 884.022 707.588 885.812C709.867 888.71 713.122 890.158 717.354 890.158C720.511 890.158 722.936 889.426 724.629 887.961C726.354 886.464 727.217 884.738 727.217 882.785C727.217 880.93 726.403 879.27 724.775 877.805C723.148 876.34 719.372 874.956 713.447 873.654C703.747 871.473 696.829 868.576 692.695 864.963C688.529 861.35 686.445 856.743 686.445 851.145C686.445 847.466 687.503 843.999 689.619 840.744C691.768 837.456 694.974 834.885 699.238 833.029C703.535 831.141 709.411 830.197 716.865 830.197C726.012 830.197 732.979 831.906 737.764 835.324C742.581 838.71 745.446 844.113 746.357 851.535L725.508 852.756C724.954 849.533 723.783 847.189 721.992 845.725C720.234 844.26 717.793 843.527 714.668 843.527C712.096 843.527 710.16 844.081 708.857 845.188C707.555 846.262 706.904 847.58 706.904 849.143C706.904 850.282 707.441 851.307 708.516 852.219C709.557 853.163 712.031 854.042 715.938 854.855C725.605 856.939 732.523 859.055 736.689 861.203C740.889 863.319 743.932 865.956 745.82 869.113C747.741 872.271 748.701 875.803 748.701 879.709C748.701 884.299 747.432 888.531 744.893 892.404C742.354 896.278 738.805 899.224 734.248 901.242C729.691 903.228 723.945 904.221 717.012 904.221C704.837 904.221 696.406 901.877 691.719 897.189C687.031 892.502 684.378 886.545 683.76 879.318Z" fill="black"/>
<rect x="53" y="746" width="727" height="9" fill="black"/>
</svg>
