<svg width="823" height="823" viewBox="0 0 823 823" fill="none" xmlns="http://www.w3.org/2000/svg">
<path d="M193.931 286C156.931 666 664.269 666 627.269 286" stroke="#9B00E3" stroke-width="30" stroke-linecap="round"/>
<path d="M391 571H431V733C431 744.046 422.046 753 411 753V753C399.954 753 391 744.046 391 733V571Z" fill="#9B00E3"/>
<path d="M306.8 453C306.8 453 261.8 415 261.8 333C261.8 266 261.8 182.533 261.8 182.533C261.8 124.667 315.8 71 409.8 71C503.8 71 562.8 124.667 562.8 182.533C562.8 182.533 562.8 272.5 562.8 333C562.8 415 517.8 453 517.8 453" stroke="#9B00E3" stroke-width="30" stroke-linecap="round"/>
<rect x="258" y="313" width="301" height="40" fill="#9B00E3"/>
<rect x="323" y="166" width="25" height="86" rx="5" fill="#002647"/>
<rect x="398" y="166" width="25" height="86" rx="5" fill="#002647"/>
<rect x="473" y="166" width="25" height="86" rx="5" fill="#002647"/>
</svg>
