<svg width="1095" height="1095" viewBox="0 0 1095 1095" fill="none" xmlns="http://www.w3.org/2000/svg">
<rect width="1095" height="1095" rx="40" fill="#002647"/>
<path d="M290.044 793H276.044L274.204 781V780.84L253.724 781L251.884 793H239.484L243.404 781L253.244 745L255.644 733H273.324L275.724 745L286.124 781L290.044 793ZM271.004 769.88L263.724 744.28L256.764 769.96L271.004 769.88ZM325.519 733C331.972 733 337.065 734.84 340.799 738.52C344.585 742.147 346.479 747.347 346.479 754.12C346.479 758.547 345.599 762.36 343.839 765.56C342.132 768.76 339.679 771.213 336.479 772.92C333.332 774.573 329.652 775.4 325.439 775.4H315.839V781L316.639 793H303.519L304.319 781V744.6L303.519 733H325.519ZM322.159 764.36C325.359 764.36 327.839 764.067 329.599 763.48C331.359 762.84 332.612 761.8 333.359 760.36C334.105 758.867 334.479 756.787 334.479 754.12C334.479 751.56 334.105 749.56 333.359 748.12C332.612 746.68 331.359 745.64 329.599 745C327.839 744.36 325.412 744.04 322.319 744.04H315.839V764.36H322.159ZM383.05 733C389.503 733 394.597 734.84 398.33 738.52C402.117 742.147 404.01 747.347 404.01 754.12C404.01 758.547 403.13 762.36 401.37 765.56C399.663 768.76 397.21 771.213 394.01 772.92C390.863 774.573 387.183 775.4 382.97 775.4H373.37V781L374.17 793H361.05L361.85 781V744.6L361.05 733H383.05ZM379.69 764.36C382.89 764.36 385.37 764.067 387.13 763.48C388.89 762.84 390.143 761.8 390.89 760.36C391.637 758.867 392.01 756.787 392.01 754.12C392.01 751.56 391.637 749.56 390.89 748.12C390.143 746.68 388.89 745.64 387.13 745C385.37 744.36 382.943 744.04 379.85 744.04H373.37V764.36H379.69ZM464.341 793H447.781L442.421 781L438.981 775.4H430.901V781L431.701 793H418.581L419.381 781V744.6L418.581 733H439.461C446.555 733 451.808 734.76 455.221 738.28C458.688 741.747 460.421 747.027 460.421 754.12C460.421 758.44 459.515 762.2 457.701 765.4C455.941 768.6 453.488 771.053 450.341 772.76L455.461 781L464.341 793ZM430.901 764.36H436.101C440.635 764.36 443.808 763.613 445.621 762.12C447.488 760.627 448.421 757.96 448.421 754.12C448.421 751.453 448.048 749.4 447.301 747.96C446.555 746.52 445.301 745.507 443.541 744.92C441.835 744.333 439.408 744.04 436.261 744.04H430.901V764.36ZM478.319 781V744.6L477.519 733H490.639L489.839 744.6V781L490.639 793H477.519L478.319 781ZM526.333 793.88C522.76 793.88 519.32 793.24 516.013 791.96C512.76 790.627 509.933 788.733 507.533 786.28L505.853 775L506.973 774.68C509.96 777.24 512.973 779.213 516.013 780.6C519.053 781.933 521.986 782.6 524.813 782.6C528.173 782.6 530.76 782.093 532.573 781.08C534.44 780.013 535.373 778.52 535.373 776.6C535.373 774.787 534.493 773.32 532.733 772.2C531.026 771.027 527.933 769.773 523.453 768.44C519.24 767.213 515.933 765.853 513.533 764.36C511.133 762.867 509.4 761 508.333 758.76C507.266 756.52 506.733 753.613 506.733 750.04C506.733 744.44 508.546 740.067 512.173 736.92C515.853 733.773 520.68 732.2 526.653 732.2C530.28 732.2 533.773 732.76 537.133 733.88C540.493 735 543.213 736.493 545.293 738.36L543.533 749.16L542.333 749.48C541.213 747.72 539.266 746.28 536.493 745.16C533.773 744.04 530.84 743.48 527.693 743.48C524.813 743.48 522.6 743.987 521.053 745C519.506 746.013 518.733 747.507 518.733 749.48C518.733 751.507 519.48 753.08 520.973 754.2C522.52 755.267 525.293 756.36 529.293 757.48C533.88 758.76 537.453 760.147 540.013 761.64C542.573 763.08 544.44 764.893 545.613 767.08C546.786 769.267 547.373 772.067 547.373 775.48C547.373 781.293 545.453 785.827 541.613 789.08C537.773 792.28 532.68 793.88 526.333 793.88ZM599.781 781.96L598.021 793H562.581L563.381 781V744.6L562.581 733H598.981L597.221 744.04H574.901V756.6H595.221L593.461 767.64H574.901V781.96H599.781ZM407.217 874.28C401.084 874.28 396.204 873.213 392.577 871.08C388.95 868.947 386.31 865.587 384.657 861C383.004 856.413 382.177 850.333 382.177 842.76C382.177 832.413 384.177 824.653 388.177 819.48C392.177 814.307 398.524 811.72 407.217 811.72C410.524 811.72 413.244 812.067 415.377 812.76C417.51 813.4 419.537 814.467 421.457 815.96L420.097 823.16L418.497 823.88C417.164 822.44 415.617 821.4 413.857 820.76C412.097 820.12 409.884 819.8 407.217 819.8C401.564 819.8 397.43 821.613 394.817 825.24C392.257 828.813 390.977 834.653 390.977 842.76C390.977 848.68 391.484 853.347 392.497 856.76C393.51 860.12 395.19 862.547 397.537 864.04C399.884 865.48 403.11 866.2 407.217 866.2C410.364 866.2 412.95 865.88 414.977 865.24C417.004 864.547 418.87 863.427 420.577 861.88L422.017 862.52L420.257 869.4C416.417 872.653 412.07 874.28 407.217 874.28ZM460.706 874.28C453.292 874.28 447.666 871.64 443.826 866.36C440.039 861.027 438.146 853.16 438.146 842.76C438.146 832.467 440.039 824.733 443.826 819.56C447.666 814.333 453.292 811.72 460.706 811.72C468.066 811.72 473.666 814.333 477.506 819.56C481.346 824.733 483.266 832.467 483.266 842.76C483.266 853.16 481.346 861.027 477.506 866.36C473.666 871.64 468.066 874.28 460.706 874.28ZM460.706 866.2C463.959 866.2 466.599 865.427 468.626 863.88C470.652 862.333 472.146 859.853 473.106 856.44C474.119 853.027 474.626 848.467 474.626 842.76C474.626 834.547 473.506 828.68 471.266 825.16C469.079 821.587 465.559 819.8 460.706 819.8C457.452 819.8 454.786 820.573 452.706 822.12C450.679 823.613 449.186 826.04 448.226 829.4C447.266 832.76 446.786 837.213 446.786 842.76C446.786 848.467 447.266 853.027 448.226 856.44C449.186 859.853 450.679 862.333 452.706 863.88C454.732 865.427 457.399 866.2 460.706 866.2ZM543.151 861.32L543.631 873.08H535.711V873H529.791L510.671 819.88V861L511.151 873H502.671L503.231 861V824.6L502.671 813H516.671L535.711 865.88V824.92L535.151 813.08H543.631L543.151 824.92V861.32ZM573.768 820.84V838.2H595.768L594.488 846.04H573.768V861L574.248 873H564.968L565.528 861V824.6L564.968 813H599.528L598.328 820.84H573.768Z" fill="white"/>
<path d="M421.931 421C384.931 801 892.269 801 855.269 421" stroke="#9B00E3" stroke-width="20" stroke-linecap="round"/>
<path d="M619 706H659V868C659 879.046 650.046 888 639 888V888C627.954 888 619 879.046 619 868V706Z" fill="#9B00E3"/>
<path d="M534.8 588C534.8 588 489.8 550 489.8 468C489.8 401 489.8 317.533 489.8 317.533C489.8 259.667 543.8 206 637.8 206C731.8 206 790.8 259.667 790.8 317.533C790.8 317.533 790.8 407.5 790.8 468C790.8 550 745.8 588 745.8 588" stroke="#9B00E3" stroke-width="20" stroke-linecap="round"/>
<rect x="486" y="448" width="301" height="40" fill="#9B00E3"/>
<rect x="551" y="301" width="25" height="86" rx="5" fill="white"/>
<rect x="626" y="301" width="25" height="86" rx="5" fill="white"/>
<rect x="701" y="301" width="25" height="86" rx="5" fill="white"/>
</svg>
