<svg width="458" height="692" viewBox="0 0 458 692" fill="none" xmlns="http://www.w3.org/2000/svg">
<path d="M11.9314 225C-25.0686 605 482.269 605 445.269 225" stroke="#9B00E3" stroke-width="20" stroke-linecap="round"/>
<path d="M209 510H249V672C249 683.046 240.046 692 229 692V692C217.954 692 209 683.046 209 672V510Z" fill="#9B00E3"/>
<path d="M124.8 392C124.8 392 79.7998 354 79.7998 272C79.7998 205 79.7998 121.533 79.7998 121.533C79.7998 63.6667 133.8 10 227.8 10C321.8 10 380.8 63.6667 380.8 121.533C380.8 121.533 380.8 211.5 380.8 272C380.8 354 335.8 392 335.8 392" stroke="#9B00E3" stroke-width="20" stroke-linecap="round"/>
<rect x="76" y="252" width="301" height="40" fill="#9B00E3"/>
<rect x="141" y="105" width="25" height="86" rx="5" fill="white"/>
<rect x="216" y="105" width="25" height="86" rx="5" fill="white"/>
<rect x="291" y="105" width="25" height="86" rx="5" fill="white"/>
</svg>
