<svg width="1095" height="1026" viewBox="0 0 1095 1026" fill="none" xmlns="http://www.w3.org/2000/svg">
<rect width="1095" height="1026" rx="40" fill="#002647"/>
<path d="M109.879 455.861C93.0379 628.826 323.962 628.826 307.121 455.861" stroke="#9B00E3" stroke-width="15" stroke-linecap="round"/>
<path d="M199.579 585.584H217.785V659.322C217.785 664.349 213.71 668.425 208.682 668.425V668.425C203.654 668.425 199.579 664.349 199.579 659.322V585.584Z" fill="#9B00E3"/>
<path d="M161.253 531.875C161.253 531.875 140.771 514.578 140.771 477.254C140.771 446.758 140.771 408.767 140.771 408.767C140.771 382.427 165.35 358 208.136 358C250.921 358 277.776 382.427 277.776 408.767C277.776 408.767 277.776 449.717 277.776 477.254C277.776 514.578 257.294 531.875 257.294 531.875" stroke="#9B00E3" stroke-width="15" stroke-linecap="round"/>
<rect x="139.041" y="468.151" width="137.006" height="18.2068" fill="#9B00E3"/>
<rect x="168.627" y="401.241" width="11.3792" height="39.1445" rx="5" fill="white"/>
<rect x="202.765" y="401.241" width="11.3792" height="39.1445" rx="5" fill="white"/>
<rect x="236.902" y="401.241" width="11.3792" height="39.1445" rx="5" fill="white"/>
<path d="M504 468H477.75L474.3 445.5V445.2L435.9 445.5L432.45 468H409.2L416.55 445.5L435 378L439.5 355.5H472.65L477.15 378L496.65 445.5L504 468ZM468.3 424.65L454.65 376.65L441.6 424.8L468.3 424.65ZM555.516 355.5C567.616 355.5 577.166 358.95 584.166 365.85C591.266 372.65 594.816 382.4 594.816 395.1C594.816 403.4 593.166 410.55 589.866 416.55C586.666 422.55 582.066 427.15 576.066 430.35C570.166 433.45 563.266 435 555.366 435H537.366V445.5L538.866 468H514.266L515.766 445.5V377.25L514.266 355.5H555.516ZM549.216 414.3C555.216 414.3 559.866 413.75 563.166 412.65C566.466 411.45 568.816 409.5 570.216 406.8C571.616 404 572.316 400.1 572.316 395.1C572.316 390.3 571.616 386.55 570.216 383.85C568.816 381.15 566.466 379.2 563.166 378C559.866 376.8 555.316 376.2 549.516 376.2H537.366V414.3H549.216ZM648.387 355.5C660.487 355.5 670.037 358.95 677.037 365.85C684.137 372.65 687.687 382.4 687.687 395.1C687.687 403.4 686.037 410.55 682.737 416.55C679.537 422.55 674.937 427.15 668.937 430.35C663.037 433.45 656.137 435 648.237 435H630.237V445.5L631.737 468H607.137L608.637 445.5V377.25L607.137 355.5H648.387ZM642.087 414.3C648.087 414.3 652.737 413.75 656.037 412.65C659.337 411.45 661.687 409.5 663.087 406.8C664.487 404 665.187 400.1 665.187 395.1C665.187 390.3 664.487 386.55 663.087 383.85C661.687 381.15 659.337 379.2 656.037 378C652.737 376.8 648.187 376.2 642.387 376.2H630.237V414.3H642.087ZM785.808 468H754.758L744.708 445.5L738.258 435H723.108V445.5L724.608 468H700.008L701.508 445.5V377.25L700.008 355.5H739.158C752.458 355.5 762.308 358.8 768.708 365.4C775.208 371.9 778.458 381.8 778.458 395.1C778.458 403.2 776.758 410.25 773.358 416.25C770.058 422.25 765.458 426.85 759.558 430.05L769.158 445.5L785.808 468ZM723.108 414.3H732.858C741.358 414.3 747.308 412.9 750.708 410.1C754.208 407.3 755.958 402.3 755.958 395.1C755.958 390.1 755.258 386.25 753.858 383.55C752.458 380.85 750.108 378.95 746.808 377.85C743.608 376.75 739.058 376.2 733.158 376.2H723.108V414.3ZM797.016 445.5V377.25L795.516 355.5H820.116L818.616 377.25V445.5L820.116 468H795.516L797.016 445.5ZM872.043 469.65C865.343 469.65 858.893 468.45 852.693 466.05C846.593 463.55 841.293 460 836.793 455.4L833.643 434.25L835.743 433.65C841.343 438.45 846.993 442.15 852.693 444.75C858.393 447.25 863.893 448.5 869.193 448.5C875.493 448.5 880.343 447.55 883.743 445.65C887.243 443.65 888.993 440.85 888.993 437.25C888.993 433.85 887.343 431.1 884.043 429C880.843 426.8 875.043 424.45 866.643 421.95C858.743 419.65 852.543 417.1 848.043 414.3C843.543 411.5 840.293 408 838.293 403.8C836.293 399.6 835.293 394.15 835.293 387.45C835.293 376.95 838.693 368.75 845.493 362.85C852.393 356.95 861.443 354 872.643 354C879.443 354 885.993 355.05 892.293 357.15C898.593 359.25 903.693 362.05 907.593 365.55L904.293 385.8L902.043 386.4C899.943 383.1 896.293 380.4 891.093 378.3C885.993 376.2 880.493 375.15 874.593 375.15C869.193 375.15 865.043 376.1 862.143 378C859.243 379.9 857.793 382.7 857.793 386.4C857.793 390.2 859.193 393.15 861.993 395.25C864.893 397.25 870.093 399.3 877.593 401.4C886.193 403.8 892.893 406.4 897.693 409.2C902.493 411.9 905.993 415.3 908.193 419.4C910.393 423.5 911.493 428.75 911.493 435.15C911.493 446.05 907.893 454.55 900.693 460.65C893.493 466.65 883.943 469.65 872.043 469.65ZM994.758 447.3L991.458 468H925.008L926.508 445.5V377.25L925.008 355.5H993.258L989.958 376.2H948.108V399.75H986.208L982.908 420.45H948.108V447.3H994.758ZM464.1 650.4C452.6 650.4 443.45 648.4 436.65 644.4C429.85 640.4 424.9 634.1 421.8 625.5C418.7 616.9 417.15 605.5 417.15 591.3C417.15 571.9 420.9 557.35 428.4 547.65C435.9 537.95 447.8 533.1 464.1 533.1C470.3 533.1 475.4 533.75 479.4 535.05C483.4 536.25 487.2 538.25 490.8 541.05L488.25 554.55L485.25 555.9C482.75 553.2 479.85 551.25 476.55 550.05C473.25 548.85 469.1 548.25 464.1 548.25C453.5 548.25 445.75 551.65 440.85 558.45C436.05 565.15 433.65 576.1 433.65 591.3C433.65 602.4 434.6 611.15 436.5 617.55C438.4 623.85 441.55 628.4 445.95 631.2C450.35 633.9 456.4 635.25 464.1 635.25C470 635.25 474.85 634.65 478.65 633.45C482.45 632.15 485.95 630.05 489.15 627.15L491.85 628.35L488.55 641.25C481.35 647.35 473.2 650.4 464.1 650.4ZM549.391 650.4C535.491 650.4 524.941 645.45 517.741 635.55C510.641 625.55 507.091 610.8 507.091 591.3C507.091 572 510.641 557.5 517.741 547.8C524.941 538 535.491 533.1 549.391 533.1C563.191 533.1 573.691 538 580.891 547.8C588.091 557.5 591.691 572 591.691 591.3C591.691 610.8 588.091 625.55 580.891 635.55C573.691 645.45 563.191 650.4 549.391 650.4ZM549.391 635.25C555.491 635.25 560.441 633.8 564.241 630.9C568.041 628 570.841 623.35 572.641 616.95C574.541 610.55 575.491 602 575.491 591.3C575.491 575.9 573.391 564.9 569.191 558.3C565.091 551.6 558.491 548.25 549.391 548.25C543.291 548.25 538.291 549.7 534.391 552.6C530.591 555.4 527.791 559.95 525.991 566.25C524.191 572.55 523.291 580.9 523.291 591.3C523.291 602 524.191 610.55 525.991 616.95C527.791 623.35 530.591 628 534.391 630.9C538.191 633.8 543.191 635.25 549.391 635.25ZM688.977 626.1L689.877 648.15H675.027V648H663.927L628.077 548.4V625.5L628.977 648H613.077L614.127 625.5V557.25L613.077 535.5H639.327L675.027 634.65V557.85L673.977 535.65H689.877L688.977 557.85V626.1ZM731.384 550.2V582.75H772.634L770.234 597.45H731.384V625.5L732.284 648H714.884L715.934 625.5V557.25L714.884 535.5H779.684L777.434 550.2H731.384Z" fill="white"/>
</svg>
