<svg width="898" height="360" viewBox="0 0 898 360" fill="none" xmlns="http://www.w3.org/2000/svg">
<path d="M8.87911 122.861C-7.96214 295.826 222.962 295.826 206.121 122.861" stroke="#9B00E3" stroke-width="15" stroke-linecap="round"/>
<path d="M98.5786 252.584H116.785V326.322C116.785 331.349 112.71 335.425 107.682 335.425V335.425C102.654 335.425 98.5786 331.349 98.5786 326.322V252.584Z" fill="#9B00E3"/>
<path d="M60.2531 198.875C60.2531 198.875 39.7705 181.578 39.7705 144.254C39.7705 113.758 39.7705 75.7665 39.7705 75.7665C39.7705 49.4274 64.3496 25 107.136 25C149.921 25 176.776 49.4274 176.776 75.7665C176.776 75.7665 176.776 116.717 176.776 144.254C176.776 181.578 156.294 198.875 156.294 198.875" stroke="#9B00E3" stroke-width="15" stroke-linecap="round"/>
<rect x="38.041" y="135.151" width="137.006" height="18.2068" fill="#9B00E3"/>
<rect x="67.627" y="68.241" width="11.3792" height="39.1445" rx="5" fill="white"/>
<rect x="101.765" y="68.241" width="11.3792" height="39.1445" rx="5" fill="white"/>
<rect x="135.902" y="68.241" width="11.3792" height="39.1445" rx="5" fill="white"/>
<path d="M403 135H376.75L373.3 112.5V112.2L334.9 112.5L331.45 135H308.2L315.55 112.5L334 45L338.5 22.5H371.65L376.15 45L395.65 112.5L403 135ZM367.3 91.65L353.65 43.65L340.6 91.8L367.3 91.65ZM454.516 22.5C466.616 22.5 476.166 25.95 483.166 32.85C490.266 39.65 493.816 49.4 493.816 62.1C493.816 70.4 492.166 77.55 488.866 83.55C485.666 89.55 481.066 94.15 475.066 97.35C469.166 100.45 462.266 102 454.366 102H436.366V112.5L437.866 135H413.266L414.766 112.5V44.25L413.266 22.5H454.516ZM448.216 81.3C454.216 81.3 458.866 80.75 462.166 79.65C465.466 78.45 467.816 76.5 469.216 73.8C470.616 71 471.316 67.1 471.316 62.1C471.316 57.3 470.616 53.55 469.216 50.85C467.816 48.15 465.466 46.2 462.166 45C458.866 43.8 454.316 43.2 448.516 43.2H436.366V81.3H448.216ZM547.387 22.5C559.487 22.5 569.037 25.95 576.037 32.85C583.137 39.65 586.687 49.4 586.687 62.1C586.687 70.4 585.037 77.55 581.737 83.55C578.537 89.55 573.937 94.15 567.937 97.35C562.037 100.45 555.137 102 547.237 102H529.237V112.5L530.737 135H506.137L507.637 112.5V44.25L506.137 22.5H547.387ZM541.087 81.3C547.087 81.3 551.737 80.75 555.037 79.65C558.337 78.45 560.687 76.5 562.087 73.8C563.487 71 564.187 67.1 564.187 62.1C564.187 57.3 563.487 53.55 562.087 50.85C560.687 48.15 558.337 46.2 555.037 45C551.737 43.8 547.187 43.2 541.387 43.2H529.237V81.3H541.087ZM684.808 135H653.758L643.708 112.5L637.258 102H622.108V112.5L623.608 135H599.008L600.508 112.5V44.25L599.008 22.5H638.158C651.458 22.5 661.308 25.8 667.708 32.4C674.208 38.9 677.458 48.8 677.458 62.1C677.458 70.2 675.758 77.25 672.358 83.25C669.058 89.25 664.458 93.85 658.558 97.05L668.158 112.5L684.808 135ZM622.108 81.3H631.858C640.358 81.3 646.308 79.9 649.708 77.1C653.208 74.3 654.958 69.3 654.958 62.1C654.958 57.1 654.258 53.25 652.858 50.55C651.458 47.85 649.108 45.95 645.808 44.85C642.608 43.75 638.058 43.2 632.158 43.2H622.108V81.3ZM696.016 112.5V44.25L694.516 22.5H719.116L717.616 44.25V112.5L719.116 135H694.516L696.016 112.5ZM771.043 136.65C764.343 136.65 757.893 135.45 751.693 133.05C745.593 130.55 740.293 127 735.793 122.4L732.643 101.25L734.743 100.65C740.343 105.45 745.993 109.15 751.693 111.75C757.393 114.25 762.893 115.5 768.193 115.5C774.493 115.5 779.343 114.55 782.743 112.65C786.243 110.65 787.993 107.85 787.993 104.25C787.993 100.85 786.343 98.1 783.043 96C779.843 93.8 774.043 91.45 765.643 88.95C757.743 86.65 751.543 84.1 747.043 81.3C742.543 78.5 739.293 75 737.293 70.8C735.293 66.6 734.293 61.15 734.293 54.45C734.293 43.95 737.693 35.75 744.493 29.85C751.393 23.95 760.443 21 771.643 21C778.443 21 784.993 22.05 791.293 24.15C797.593 26.25 802.693 29.05 806.593 32.55L803.293 52.8L801.043 53.4C798.943 50.1 795.293 47.4 790.093 45.3C784.993 43.2 779.493 42.15 773.593 42.15C768.193 42.15 764.043 43.1 761.143 45C758.243 46.9 756.793 49.7 756.793 53.4C756.793 57.2 758.193 60.15 760.993 62.25C763.893 64.25 769.093 66.3 776.593 68.4C785.193 70.8 791.893 73.4 796.693 76.2C801.493 78.9 804.993 82.3 807.193 86.4C809.393 90.5 810.493 95.75 810.493 102.15C810.493 113.05 806.893 121.55 799.693 127.65C792.493 133.65 782.943 136.65 771.043 136.65ZM893.758 114.3L890.458 135H824.008L825.508 112.5V44.25L824.008 22.5H892.258L888.958 43.2H847.108V66.75H885.208L881.908 87.45H847.108V114.3H893.758ZM363.1 317.4C351.6 317.4 342.45 315.4 335.65 311.4C328.85 307.4 323.9 301.1 320.8 292.5C317.7 283.9 316.15 272.5 316.15 258.3C316.15 238.9 319.9 224.35 327.4 214.65C334.9 204.95 346.8 200.1 363.1 200.1C369.3 200.1 374.4 200.75 378.4 202.05C382.4 203.25 386.2 205.25 389.8 208.05L387.25 221.55L384.25 222.9C381.75 220.2 378.85 218.25 375.55 217.05C372.25 215.85 368.1 215.25 363.1 215.25C352.5 215.25 344.75 218.65 339.85 225.45C335.05 232.15 332.65 243.1 332.65 258.3C332.65 269.4 333.6 278.15 335.5 284.55C337.4 290.85 340.55 295.4 344.95 298.2C349.35 300.9 355.4 302.25 363.1 302.25C369 302.25 373.85 301.65 377.65 300.45C381.45 299.15 384.95 297.05 388.15 294.15L390.85 295.35L387.55 308.25C380.35 314.35 372.2 317.4 363.1 317.4ZM448.391 317.4C434.491 317.4 423.941 312.45 416.741 302.55C409.641 292.55 406.091 277.8 406.091 258.3C406.091 239 409.641 224.5 416.741 214.8C423.941 205 434.491 200.1 448.391 200.1C462.191 200.1 472.691 205 479.891 214.8C487.091 224.5 490.691 239 490.691 258.3C490.691 277.8 487.091 292.55 479.891 302.55C472.691 312.45 462.191 317.4 448.391 317.4ZM448.391 302.25C454.491 302.25 459.441 300.8 463.241 297.9C467.041 295 469.841 290.35 471.641 283.95C473.541 277.55 474.491 269 474.491 258.3C474.491 242.9 472.391 231.9 468.191 225.3C464.091 218.6 457.491 215.25 448.391 215.25C442.291 215.25 437.291 216.7 433.391 219.6C429.591 222.4 426.791 226.95 424.991 233.25C423.191 239.55 422.291 247.9 422.291 258.3C422.291 269 423.191 277.55 424.991 283.95C426.791 290.35 429.591 295 433.391 297.9C437.191 300.8 442.191 302.25 448.391 302.25ZM587.977 293.1L588.877 315.15H574.027V315H562.927L527.077 215.4V292.5L527.977 315H512.077L513.127 292.5V224.25L512.077 202.5H538.327L574.027 301.65V224.85L572.977 202.65H588.877L587.977 224.85V293.1ZM630.384 217.2V249.75H671.634L669.234 264.45H630.384V292.5L631.284 315H613.884L614.934 292.5V224.25L613.884 202.5H678.684L676.434 217.2H630.384Z" fill="white"/>
</svg>
