<svg width="693" height="1017" viewBox="0 0 693 1017" fill="none" xmlns="http://www.w3.org/2000/svg">
<path d="M52.0438 597H38.0438L36.2038 585V584.84L15.7238 585L13.8838 597H1.48375L5.40375 585L15.2438 549L17.6438 537H35.3238L37.7238 549L48.1238 585L52.0438 597ZM33.0038 573.88L25.7238 548.28L18.7638 573.96L33.0038 573.88ZM87.5188 537C93.9721 537 99.0654 538.84 102.799 542.52C106.585 546.147 108.479 551.347 108.479 558.12C108.479 562.547 107.599 566.36 105.839 569.56C104.132 572.76 101.679 575.213 98.4788 576.92C95.3321 578.573 91.6521 579.4 87.4388 579.4H77.8388V585L78.6388 597H65.5188L66.3188 585V548.6L65.5188 537H87.5188ZM84.1588 568.36C87.3588 568.36 89.8388 568.067 91.5988 567.48C93.3588 566.84 94.6121 565.8 95.3588 564.36C96.1054 562.867 96.4788 560.787 96.4788 558.12C96.4788 555.56 96.1054 553.56 95.3588 552.12C94.6121 550.68 93.3588 549.64 91.5988 549C89.8388 548.36 87.4121 548.04 84.3188 548.04H77.8388V568.36H84.1588ZM145.05 537C151.503 537 156.597 538.84 160.33 542.52C164.117 546.147 166.01 551.347 166.01 558.12C166.01 562.547 165.13 566.36 163.37 569.56C161.663 572.76 159.21 575.213 156.01 576.92C152.863 578.573 149.183 579.4 144.97 579.4H135.37V585L136.17 597H123.05L123.85 585V548.6L123.05 537H145.05ZM141.69 568.36C144.89 568.36 147.37 568.067 149.13 567.48C150.89 566.84 152.143 565.8 152.89 564.36C153.637 562.867 154.01 560.787 154.01 558.12C154.01 555.56 153.637 553.56 152.89 552.12C152.143 550.68 150.89 549.64 149.13 549C147.37 548.36 144.943 548.04 141.85 548.04H135.37V568.36H141.69ZM226.341 597H209.781L204.421 585L200.981 579.4H192.901V585L193.701 597H180.581L181.381 585V548.6L180.581 537H201.461C208.555 537 213.808 538.76 217.221 542.28C220.688 545.747 222.421 551.027 222.421 558.12C222.421 562.44 221.515 566.2 219.701 569.4C217.941 572.6 215.488 575.053 212.341 576.76L217.461 585L226.341 597ZM192.901 568.36H198.101C202.635 568.36 205.808 567.613 207.621 566.12C209.488 564.627 210.421 561.96 210.421 558.12C210.421 555.453 210.048 553.4 209.301 551.96C208.555 550.52 207.301 549.507 205.541 548.92C203.835 548.333 201.408 548.04 198.261 548.04H192.901V568.36ZM240.319 585V548.6L239.519 537H252.639L251.839 548.6V585L252.639 597H239.519L240.319 585ZM288.333 597.88C284.76 597.88 281.32 597.24 278.013 595.96C274.76 594.627 271.933 592.733 269.533 590.28L267.853 579L268.973 578.68C271.96 581.24 274.973 583.213 278.013 584.6C281.053 585.933 283.986 586.6 286.813 586.6C290.173 586.6 292.76 586.093 294.573 585.08C296.44 584.013 297.373 582.52 297.373 580.6C297.373 578.787 296.493 577.32 294.733 576.2C293.026 575.027 289.933 573.773 285.453 572.44C281.24 571.213 277.933 569.853 275.533 568.36C273.133 566.867 271.4 565 270.333 562.76C269.266 560.52 268.733 557.613 268.733 554.04C268.733 548.44 270.546 544.067 274.173 540.92C277.853 537.773 282.68 536.2 288.653 536.2C292.28 536.2 295.773 536.76 299.133 537.88C302.493 539 305.213 540.493 307.293 542.36L305.533 553.16L304.333 553.48C303.213 551.72 301.266 550.28 298.493 549.16C295.773 548.04 292.84 547.48 289.693 547.48C286.813 547.48 284.6 547.987 283.053 549C281.506 550.013 280.733 551.507 280.733 553.48C280.733 555.507 281.48 557.08 282.973 558.2C284.52 559.267 287.293 560.36 291.293 561.48C295.88 562.76 299.453 564.147 302.013 565.64C304.573 567.08 306.44 568.893 307.613 571.08C308.786 573.267 309.373 576.067 309.373 579.48C309.373 585.293 307.453 589.827 303.613 593.08C299.773 596.28 294.68 597.88 288.333 597.88ZM361.781 585.96L360.021 597H324.581L325.381 585V548.6L324.581 537H360.981L359.221 548.04H336.901V560.6H357.221L355.461 571.64H336.901V585.96H361.781ZM169.217 678.28C163.084 678.28 158.204 677.213 154.577 675.08C150.95 672.947 148.31 669.587 146.657 665C145.004 660.413 144.177 654.333 144.177 646.76C144.177 636.413 146.177 628.653 150.177 623.48C154.177 618.307 160.524 615.72 169.217 615.72C172.524 615.72 175.244 616.067 177.377 616.76C179.51 617.4 181.537 618.467 183.457 619.96L182.097 627.16L180.497 627.88C179.164 626.44 177.617 625.4 175.857 624.76C174.097 624.12 171.884 623.8 169.217 623.8C163.564 623.8 159.43 625.613 156.817 629.24C154.257 632.813 152.977 638.653 152.977 646.76C152.977 652.68 153.484 657.347 154.497 660.76C155.51 664.12 157.19 666.547 159.537 668.04C161.884 669.48 165.11 670.2 169.217 670.2C172.364 670.2 174.95 669.88 176.977 669.24C179.004 668.547 180.87 667.427 182.577 665.88L184.017 666.52L182.257 673.4C178.417 676.653 174.07 678.28 169.217 678.28ZM222.706 678.28C215.292 678.28 209.666 675.64 205.826 670.36C202.039 665.027 200.146 657.16 200.146 646.76C200.146 636.467 202.039 628.733 205.826 623.56C209.666 618.333 215.292 615.72 222.706 615.72C230.066 615.72 235.666 618.333 239.506 623.56C243.346 628.733 245.266 636.467 245.266 646.76C245.266 657.16 243.346 665.027 239.506 670.36C235.666 675.64 230.066 678.28 222.706 678.28ZM222.706 670.2C225.959 670.2 228.599 669.427 230.626 667.88C232.652 666.333 234.146 663.853 235.106 660.44C236.119 657.027 236.626 652.467 236.626 646.76C236.626 638.547 235.506 632.68 233.266 629.16C231.079 625.587 227.559 623.8 222.706 623.8C219.452 623.8 216.786 624.573 214.706 626.12C212.679 627.613 211.186 630.04 210.226 633.4C209.266 636.76 208.786 641.213 208.786 646.76C208.786 652.467 209.266 657.027 210.226 660.44C211.186 663.853 212.679 666.333 214.706 667.88C216.732 669.427 219.399 670.2 222.706 670.2ZM305.151 665.32L305.631 677.08H297.711V677H291.791L272.671 623.88V665L273.151 677H264.671L265.231 665V628.6L264.671 617H278.671L297.711 669.88V628.92L297.151 617.08H305.631L305.151 628.92V665.32ZM335.768 624.84V642.2H357.768L356.488 650.04H335.768V665L336.248 677H326.968L327.528 665V628.6L326.968 617H361.528L360.328 624.84H335.768Z" fill="white"/>
<path d="M183.931 225C146.931 605 654.269 605 617.269 225" stroke="#9B00E3" stroke-width="20" stroke-linecap="round"/>
<path d="M381 510H421V672C421 683.046 412.046 692 401 692V692C389.954 692 381 683.046 381 672V510Z" fill="#9B00E3"/>
<path d="M296.8 392C296.8 392 251.8 354 251.8 272C251.8 205 251.8 121.533 251.8 121.533C251.8 63.6667 305.8 10 399.8 10C493.8 10 552.8 63.6667 552.8 121.533C552.8 121.533 552.8 211.5 552.8 272C552.8 354 507.8 392 507.8 392" stroke="#9B00E3" stroke-width="20" stroke-linecap="round"/>
<rect x="248" y="252" width="301" height="40" fill="#9B00E3"/>
<rect x="313" y="105" width="25" height="86" rx="5" fill="white"/>
<rect x="388" y="105" width="25" height="86" rx="5" fill="white"/>
<rect x="463" y="105" width="25" height="86" rx="5" fill="white"/>
<path d="M123.305 969V946.841L175.081 898.901C179.484 894.639 183.178 890.804 186.161 887.395C189.191 883.986 191.487 880.648 193.05 877.381C194.612 874.066 195.393 870.491 195.393 866.656C195.393 862.395 194.423 858.725 192.482 855.648C190.54 852.523 187.889 850.132 184.527 848.474C181.165 846.77 177.354 845.918 173.092 845.918C168.642 845.918 164.759 846.817 161.445 848.616C158.13 850.416 155.573 852.996 153.774 856.358C151.975 859.72 151.075 863.721 151.075 868.361H121.885C121.885 858.844 124.039 850.581 128.348 843.574C132.657 836.566 138.694 831.145 146.459 827.31C154.224 823.474 163.173 821.557 173.305 821.557C183.722 821.557 192.789 823.403 200.507 827.097C208.272 830.742 214.309 835.809 218.618 842.295C222.927 848.782 225.081 856.216 225.081 864.597C225.081 870.089 223.992 875.51 221.814 880.861C219.683 886.211 215.872 892.153 210.379 898.688C204.887 905.174 197.145 912.963 187.155 922.054L165.919 942.864V943.858H226.999V969H123.305ZM326.313 972.196C314.097 972.149 303.586 969.142 294.779 963.176C286.02 957.21 279.272 948.569 274.538 937.253C269.85 925.937 267.53 912.324 267.577 896.415C267.577 880.553 269.921 867.035 274.609 855.861C279.344 844.687 286.091 836.187 294.85 830.364C303.657 824.492 314.145 821.557 326.313 821.557C338.482 821.557 348.946 824.492 357.705 830.364C366.512 836.235 373.283 844.758 378.018 855.932C382.753 867.059 385.096 880.553 385.049 896.415C385.049 912.371 382.682 926.008 377.947 937.324C373.259 948.64 366.536 957.281 357.776 963.247C349.017 969.213 338.529 972.196 326.313 972.196ZM326.313 946.699C334.647 946.699 341.299 942.509 346.271 934.128C351.242 925.747 353.704 913.176 353.657 896.415C353.657 885.383 352.521 876.197 350.248 868.858C348.022 861.519 344.85 856.003 340.731 852.31C336.659 848.616 331.853 846.77 326.313 846.77C318.027 846.77 311.398 850.913 306.427 859.199C301.455 867.485 298.946 879.89 298.898 896.415C298.898 907.589 300.011 916.917 302.237 924.398C304.509 931.831 307.705 937.419 311.825 941.159C315.944 944.852 320.773 946.699 326.313 946.699ZM426.977 969V946.841L478.753 898.901C483.156 894.639 486.849 890.804 489.832 887.395C492.863 883.986 495.159 880.648 496.722 877.381C498.284 874.066 499.065 870.491 499.065 866.656C499.065 862.395 498.095 858.725 496.153 855.648C494.212 852.523 491.561 850.132 488.199 848.474C484.837 846.77 481.026 845.918 476.764 845.918C472.313 845.918 468.431 846.817 465.116 848.616C461.802 850.416 459.245 852.996 457.446 856.358C455.647 859.72 454.747 863.721 454.747 868.361H425.557C425.557 858.844 427.711 850.581 432.02 843.574C436.329 836.566 442.366 831.145 450.131 827.31C457.896 823.474 466.845 821.557 476.977 821.557C487.394 821.557 496.461 823.403 504.179 827.097C511.944 830.742 517.981 835.809 522.29 842.295C526.598 848.782 528.753 856.216 528.753 864.597C528.753 870.089 527.664 875.51 525.486 880.861C523.355 886.211 519.544 892.153 514.051 898.688C508.559 905.174 500.817 912.963 490.827 922.054L469.591 942.864V943.858H530.67V969H426.977ZM626.718 970.989C616.112 970.989 606.666 969.166 598.38 965.52C590.141 961.827 583.631 956.76 578.849 950.321C574.114 943.834 571.675 936.353 571.533 927.878H602.499C602.689 931.429 603.849 934.554 605.979 937.253C608.157 939.904 611.046 941.964 614.644 943.432C618.243 944.9 622.291 945.634 626.789 945.634C631.477 945.634 635.62 944.805 639.218 943.148C642.817 941.491 645.634 939.194 647.67 936.259C649.706 933.323 650.724 929.937 650.724 926.102C650.724 922.22 649.635 918.787 647.457 915.804C645.326 912.774 642.248 910.406 638.224 908.702C634.246 906.997 629.512 906.145 624.019 906.145H610.454V883.56H624.019C628.659 883.56 632.755 882.755 636.306 881.145C639.905 879.535 642.698 877.31 644.687 874.469C646.675 871.58 647.67 868.219 647.67 864.384C647.67 860.738 646.794 857.542 645.042 854.795C643.337 852.002 640.923 849.824 637.798 848.261C634.72 846.699 631.121 845.918 627.002 845.918C622.835 845.918 619.024 846.675 615.567 848.19C612.111 849.658 609.341 851.765 607.258 854.511C605.174 857.258 604.062 860.477 603.92 864.17H574.445C574.587 855.79 576.978 848.403 581.619 842.011C586.259 835.619 592.509 830.624 600.369 827.026C608.276 823.38 617.201 821.557 627.144 821.557C637.182 821.557 645.965 823.38 653.494 827.026C661.022 830.671 666.87 835.596 671.036 841.798C675.25 847.954 677.334 854.866 677.286 862.537C677.334 870.681 674.8 877.475 669.687 882.92C664.621 888.366 658.015 891.822 649.871 893.29V894.426C660.572 895.799 668.716 899.516 674.303 905.577C679.938 911.59 682.731 919.118 682.684 928.162C682.731 936.448 680.34 943.811 675.511 950.25C670.728 956.689 664.123 961.756 655.695 965.449C647.267 969.142 637.608 970.989 626.718 970.989Z" fill="white"/>
</svg>
