<svg width="1095" height="1095" viewBox="0 0 1095 1095" fill="none" xmlns="http://www.w3.org/2000/svg">
<rect width="1095" height="1095" rx="40" fill="#002647"/>
<path d="M109.879 490.861C93.0379 663.826 323.962 663.826 307.121 490.861" stroke="#9B00E3" stroke-width="15" stroke-linecap="round"/>
<path d="M199.579 620.584H217.785V694.322C217.785 699.349 213.71 703.425 208.682 703.425V703.425C203.654 703.425 199.579 699.349 199.579 694.322V620.584Z" fill="#9B00E3"/>
<path d="M161.253 566.875C161.253 566.875 140.771 549.578 140.771 512.254C140.771 481.758 140.771 443.767 140.771 443.767C140.771 417.427 165.35 393 208.136 393C250.921 393 277.776 417.427 277.776 443.767C277.776 443.767 277.776 484.717 277.776 512.254C277.776 549.578 257.294 566.875 257.294 566.875" stroke="#9B00E3" stroke-width="15" stroke-linecap="round"/>
<rect x="139.041" y="503.151" width="137.006" height="18.2068" fill="#9B00E3"/>
<rect x="168.627" y="436.241" width="11.3792" height="39.1445" rx="5" fill="white"/>
<rect x="202.765" y="436.241" width="11.3792" height="39.1445" rx="5" fill="white"/>
<rect x="236.902" y="436.241" width="11.3792" height="39.1445" rx="5" fill="white"/>
<path d="M504 503H477.75L474.3 480.5V480.2L435.9 480.5L432.45 503H409.2L416.55 480.5L435 413L439.5 390.5H472.65L477.15 413L496.65 480.5L504 503ZM468.3 459.65L454.65 411.65L441.6 459.8L468.3 459.65ZM555.516 390.5C567.616 390.5 577.166 393.95 584.166 400.85C591.266 407.65 594.816 417.4 594.816 430.1C594.816 438.4 593.166 445.55 589.866 451.55C586.666 457.55 582.066 462.15 576.066 465.35C570.166 468.45 563.266 470 555.366 470H537.366V480.5L538.866 503H514.266L515.766 480.5V412.25L514.266 390.5H555.516ZM549.216 449.3C555.216 449.3 559.866 448.75 563.166 447.65C566.466 446.45 568.816 444.5 570.216 441.8C571.616 439 572.316 435.1 572.316 430.1C572.316 425.3 571.616 421.55 570.216 418.85C568.816 416.15 566.466 414.2 563.166 413C559.866 411.8 555.316 411.2 549.516 411.2H537.366V449.3H549.216ZM648.387 390.5C660.487 390.5 670.037 393.95 677.037 400.85C684.137 407.65 687.687 417.4 687.687 430.1C687.687 438.4 686.037 445.55 682.737 451.55C679.537 457.55 674.937 462.15 668.937 465.35C663.037 468.45 656.137 470 648.237 470H630.237V480.5L631.737 503H607.137L608.637 480.5V412.25L607.137 390.5H648.387ZM642.087 449.3C648.087 449.3 652.737 448.75 656.037 447.65C659.337 446.45 661.687 444.5 663.087 441.8C664.487 439 665.187 435.1 665.187 430.1C665.187 425.3 664.487 421.55 663.087 418.85C661.687 416.15 659.337 414.2 656.037 413C652.737 411.8 648.187 411.2 642.387 411.2H630.237V449.3H642.087ZM785.808 503H754.758L744.708 480.5L738.258 470H723.108V480.5L724.608 503H700.008L701.508 480.5V412.25L700.008 390.5H739.158C752.458 390.5 762.308 393.8 768.708 400.4C775.208 406.9 778.458 416.8 778.458 430.1C778.458 438.2 776.758 445.25 773.358 451.25C770.058 457.25 765.458 461.85 759.558 465.05L769.158 480.5L785.808 503ZM723.108 449.3H732.858C741.358 449.3 747.308 447.9 750.708 445.1C754.208 442.3 755.958 437.3 755.958 430.1C755.958 425.1 755.258 421.25 753.858 418.55C752.458 415.85 750.108 413.95 746.808 412.85C743.608 411.75 739.058 411.2 733.158 411.2H723.108V449.3ZM797.016 480.5V412.25L795.516 390.5H820.116L818.616 412.25V480.5L820.116 503H795.516L797.016 480.5ZM872.043 504.65C865.343 504.65 858.893 503.45 852.693 501.05C846.593 498.55 841.293 495 836.793 490.4L833.643 469.25L835.743 468.65C841.343 473.45 846.993 477.15 852.693 479.75C858.393 482.25 863.893 483.5 869.193 483.5C875.493 483.5 880.343 482.55 883.743 480.65C887.243 478.65 888.993 475.85 888.993 472.25C888.993 468.85 887.343 466.1 884.043 464C880.843 461.8 875.043 459.45 866.643 456.95C858.743 454.65 852.543 452.1 848.043 449.3C843.543 446.5 840.293 443 838.293 438.8C836.293 434.6 835.293 429.15 835.293 422.45C835.293 411.95 838.693 403.75 845.493 397.85C852.393 391.95 861.443 389 872.643 389C879.443 389 885.993 390.05 892.293 392.15C898.593 394.25 903.693 397.05 907.593 400.55L904.293 420.8L902.043 421.4C899.943 418.1 896.293 415.4 891.093 413.3C885.993 411.2 880.493 410.15 874.593 410.15C869.193 410.15 865.043 411.1 862.143 413C859.243 414.9 857.793 417.7 857.793 421.4C857.793 425.2 859.193 428.15 861.993 430.25C864.893 432.25 870.093 434.3 877.593 436.4C886.193 438.8 892.893 441.4 897.693 444.2C902.493 446.9 905.993 450.3 908.193 454.4C910.393 458.5 911.493 463.75 911.493 470.15C911.493 481.05 907.893 489.55 900.693 495.65C893.493 501.65 883.943 504.65 872.043 504.65ZM994.758 482.3L991.458 503H925.008L926.508 480.5V412.25L925.008 390.5H993.258L989.958 411.2H948.108V434.75H986.208L982.908 455.45H948.108V482.3H994.758ZM464.1 685.4C452.6 685.4 443.45 683.4 436.65 679.4C429.85 675.4 424.9 669.1 421.8 660.5C418.7 651.9 417.15 640.5 417.15 626.3C417.15 606.9 420.9 592.35 428.4 582.65C435.9 572.95 447.8 568.1 464.1 568.1C470.3 568.1 475.4 568.75 479.4 570.05C483.4 571.25 487.2 573.25 490.8 576.05L488.25 589.55L485.25 590.9C482.75 588.2 479.85 586.25 476.55 585.05C473.25 583.85 469.1 583.25 464.1 583.25C453.5 583.25 445.75 586.65 440.85 593.45C436.05 600.15 433.65 611.1 433.65 626.3C433.65 637.4 434.6 646.15 436.5 652.55C438.4 658.85 441.55 663.4 445.95 666.2C450.35 668.9 456.4 670.25 464.1 670.25C470 670.25 474.85 669.65 478.65 668.45C482.45 667.15 485.95 665.05 489.15 662.15L491.85 663.35L488.55 676.25C481.35 682.35 473.2 685.4 464.1 685.4ZM549.391 685.4C535.491 685.4 524.941 680.45 517.741 670.55C510.641 660.55 507.091 645.8 507.091 626.3C507.091 607 510.641 592.5 517.741 582.8C524.941 573 535.491 568.1 549.391 568.1C563.191 568.1 573.691 573 580.891 582.8C588.091 592.5 591.691 607 591.691 626.3C591.691 645.8 588.091 660.55 580.891 670.55C573.691 680.45 563.191 685.4 549.391 685.4ZM549.391 670.25C555.491 670.25 560.441 668.8 564.241 665.9C568.041 663 570.841 658.35 572.641 651.95C574.541 645.55 575.491 637 575.491 626.3C575.491 610.9 573.391 599.9 569.191 593.3C565.091 586.6 558.491 583.25 549.391 583.25C543.291 583.25 538.291 584.7 534.391 587.6C530.591 590.4 527.791 594.95 525.991 601.25C524.191 607.55 523.291 615.9 523.291 626.3C523.291 637 524.191 645.55 525.991 651.95C527.791 658.35 530.591 663 534.391 665.9C538.191 668.8 543.191 670.25 549.391 670.25ZM688.977 661.1L689.877 683.15H675.027V683H663.927L628.077 583.4V660.5L628.977 683H613.077L614.127 660.5V592.25L613.077 570.5H639.327L675.027 669.65V592.85L673.977 570.65H689.877L688.977 592.85V661.1ZM731.384 585.2V617.75H772.634L770.234 632.45H731.384V660.5L732.284 683H714.884L715.934 660.5V592.25L714.884 570.5H779.684L777.434 585.2H731.384Z" fill="white"/>
</svg>
